<svg width="16" height="16" viewBox="0 0 16 16" fill="none" xmlns="http://www.w3.org/2000/svg">
<path fill-rule="evenodd" clip-rule="evenodd" d="M8 8.75C8.3 8.75 8.5 8.95 8.5 9.25V14.25C8.5 14.55 8.3 14.75 8 14.75C7.7 14.75 7.5 14.55 7.5 14.25V9.25C7.5 8.95 7.7 8.75 8 8.75ZM11 8.75C11.3 8.75 11.5 8.95 11.5 9.25C11.5 11.05 12.35 12.7 13.8 13.75C14 13.9 14.1 14.2 13.9 14.45C13.7 14.7 13.45 14.75 13.2 14.55C11.5 13.35 10.5 11.4 10.5 9.25C10.5 8.95 10.7 8.75 11 8.75ZM5 8.75C5.3 8.75 5.5 8.95 5.5 9.25C5.5 11.35 4.5 13.3 2.8 14.55C2.6 14.7 2.25 14.65 2.1 14.45C1.95 14.25 2 13.9 2.2 13.75C3.65 12.7 4.5 11.05 4.5 9.25C4.5 8.95 4.7 8.75 5 8.75ZM14 1.25C15.1 1.25 16 2.15 16 3.25V6.25C16 7.35 15.1 8.25 14 8.25H2C0.9 8.25 0 7.35 0 6.25V3.25C0 2.15 0.9 1.25 2 1.25H14ZM13.5 5.25H2.5C2.2 5.25 2 5.45 2 5.75C2 6.05 2.2 6.25 2.5 6.25H13.5C13.8 6.25 14 6.05 14 5.75C14 5.45 13.8 5.25 13.5 5.25Z" fill="#74839C"/>
</svg>
