<svg width="16" height="15" viewBox="0 0 16 15" fill="none" xmlns="http://www.w3.org/2000/svg">
<path fill-rule="evenodd" clip-rule="evenodd" d="M0.903975 12.4919C1.03625 12.4733 1.17143 12.4733 1.30366 12.4919C1.31298 12.4933 1.32155 12.4907 1.32867 12.4846C1.3358 12.4784 1.33947 12.4703 1.33947 12.4608V1.10983C1.33947 1.0958 1.34828 1.08389 1.3617 1.07979C1.37512 1.07568 1.38909 1.08065 1.39693 1.09227L1.77715 1.65661C1.84984 1.76438 1.99614 1.79281 2.10394 1.72012C2.21171 1.64744 2.24013 1.50114 2.16745 1.39333L1.30564 0.114207C1.3055 0.113991 1.30539 0.113811 1.30525 0.113631C1.20806 -0.0378172 0.999616 -0.037997 0.902284 0.113811C0.90214 0.114027 0.902032 0.114207 0.901888 0.114423L0.0402617 1.39337C-0.0324221 1.50114 -0.00399628 1.64744 0.10377 1.72016C0.211536 1.79284 0.357839 1.76442 0.430559 1.65665L0.810746 1.09231C0.81859 1.08065 0.832551 1.07572 0.845972 1.07982C0.859393 1.08392 0.868209 1.09583 0.868209 1.10987V12.4608C0.868209 12.4702 0.871915 12.4783 0.879004 12.4845C0.886128 12.4907 0.894656 12.4932 0.903975 12.4919ZM13.0509 11.7955C13.0509 11.6654 12.9454 11.5599 12.8152 11.5599C12.6851 11.5599 12.5796 11.6654 12.5796 11.7955V12.5816C12.5796 12.7117 12.6851 12.8172 12.8152 12.8172C12.9454 12.8172 13.0509 12.7117 13.0509 12.5816V11.7955ZM13.0509 10.0213C13.0509 9.89115 12.9454 9.78565 12.8152 9.78565C12.6851 9.78565 12.5796 9.89115 12.5796 10.0213V10.8074C12.5796 10.9375 12.6851 11.043 12.8152 11.043C12.9454 11.043 13.0509 10.9375 13.0509 10.8074V10.0213ZM12.8152 8.01141C12.6851 8.01141 12.5796 8.11691 12.5796 8.24706V9.03312C12.5796 9.16327 12.6851 9.26877 12.8152 9.26877C12.9454 9.26877 13.0509 9.16327 13.0509 9.03312V8.24706C13.0509 8.11691 12.9454 8.01141 12.8152 8.01141ZM12.8152 6.23713C12.6851 6.23713 12.5796 6.34263 12.5796 6.47278V7.25884C12.5796 7.38899 12.6851 7.49449 12.8152 7.49449C12.9454 7.49449 13.0509 7.38899 13.0509 7.25884V6.47278C13.0509 6.34267 12.9454 6.23713 12.8152 6.23713ZM12.8152 4.46289C12.6851 4.46289 12.5796 4.56839 12.5796 4.69854V5.4846C12.5796 5.61475 12.6851 5.72025 12.8152 5.72025C12.9454 5.72025 13.0509 5.61475 13.0509 5.4846V4.69854C13.0509 4.56839 12.9454 4.46289 12.8152 4.46289ZM12.5796 2.92426V3.71033C12.5796 3.84047 12.6851 3.94597 12.8152 3.94597C12.9454 3.94597 13.0509 3.84047 13.0509 3.71033V2.92426C13.0509 2.79412 12.9454 2.68862 12.8152 2.68862C12.6851 2.68862 12.5796 2.79415 12.5796 2.92426ZM3.20467 2.42066H2.4186C2.28846 2.42066 2.18296 2.31516 2.18296 2.18501C2.18296 2.05486 2.28846 1.94936 2.4186 1.94936H3.20467C3.33482 1.94936 3.44032 2.05486 3.44032 2.18501C3.44032 2.31516 3.33482 2.42066 3.20467 2.42066ZM5.21459 2.18501C5.21459 2.05486 5.10909 1.94936 4.97895 1.94936H4.19288C4.06273 1.94936 3.95723 2.05486 3.95723 2.18501C3.95723 2.31516 4.06273 2.42066 4.19288 2.42066H4.97895C5.10906 2.42066 5.21459 2.31516 5.21459 2.18501ZM6.98883 2.18501C6.98883 2.05486 6.88333 1.94936 6.75319 1.94936H5.96712C5.83697 1.94936 5.73147 2.05486 5.73147 2.18501C5.73147 2.31516 5.83697 2.42066 5.96712 2.42066H6.75319C6.88333 2.42066 6.98883 2.31516 6.98883 2.18501ZM8.76307 2.18501C8.76307 2.05486 8.65757 1.94936 8.52742 1.94936H7.7414C7.61125 1.94936 7.50575 2.05486 7.50575 2.18501C7.50575 2.31516 7.61125 2.42066 7.7414 2.42066H8.52746C8.65757 2.42066 8.76307 2.31516 8.76307 2.18501ZM10.3017 2.42066C10.4318 2.42066 10.5373 2.31516 10.5373 2.18501C10.5373 2.05486 10.4318 1.94936 10.3017 1.94936H9.51564C9.38549 1.94936 9.27999 2.05486 9.27999 2.18501C9.27999 2.31516 9.38549 2.42066 9.51564 2.42066H10.3017ZM11.0542 2.18501C11.0542 2.31516 11.1597 2.42066 11.2899 2.42066H12.0759C12.2061 2.42066 12.3116 2.31516 12.3116 2.18501C12.3116 2.05486 12.2061 1.94936 12.0759 1.94936H11.2899C11.1598 1.94936 11.0542 2.05486 11.0542 2.18501ZM8.68175 4.41036L10.59 6.31856C10.682 6.41057 10.8311 6.41057 10.9232 6.31856C11.0152 6.22655 11.0152 6.07737 10.9232 5.98537L9.01498 4.07716C8.92298 3.98516 8.77379 3.98516 8.68179 4.07716C8.58975 4.16913 8.58975 4.31835 8.68175 4.41036ZM5.83888 4.41036C5.74687 4.31835 5.74687 4.16917 5.83888 4.07713C5.93089 3.98512 6.08007 3.98512 6.17207 4.07713L10.9231 8.8282C11.0152 8.92021 11.0152 9.06939 10.9231 9.1614C10.8311 9.2534 10.682 9.2534 10.5899 9.1614L5.83888 4.41036ZM2.99597 4.41036C2.90397 4.31835 2.90397 4.16917 2.99597 4.07713C3.08798 3.98512 3.23716 3.98512 3.32917 4.07713L10.9231 11.6711C11.0152 11.7631 11.0152 11.9123 10.9231 12.0043C10.8311 12.0963 10.682 12.0963 10.5899 12.0043L2.99597 4.41036ZM2.99597 7.25323L7.74705 12.0043C7.83905 12.0963 7.98823 12.0963 8.08028 12.0043C8.17232 11.9123 8.17228 11.7631 8.08028 11.6711L3.3292 6.92004C3.2372 6.82803 3.08801 6.82803 2.99601 6.92004C2.90397 7.01201 2.90397 7.16122 2.99597 7.25323ZM2.99597 10.0961L4.90417 12.0043C4.99618 12.0963 5.14536 12.0963 5.2374 12.0043C5.32941 11.9123 5.32941 11.7631 5.2374 11.6711L3.3292 9.76291C3.2372 9.6709 3.08801 9.6709 2.99601 9.76291C2.904 9.85491 2.90397 10.0041 2.99597 10.0961ZM2.50831 13.6966C2.50698 13.6873 2.50953 13.6787 2.51572 13.6716C2.52187 13.6644 2.53001 13.6608 2.53943 13.6608H14.1159C14.13 13.6608 14.142 13.6519 14.146 13.6384C14.1501 13.6249 14.145 13.6109 14.1333 13.6032L13.5607 13.224C13.4525 13.1523 13.4228 13.0064 13.4945 12.8982C13.5661 12.7899 13.712 12.7602 13.8203 12.8319L15.1181 13.6913C15.1184 13.6914 15.1186 13.6916 15.1189 13.6918C15.2779 13.79 15.2779 14.0028 15.1189 14.101C15.1186 14.1012 15.1184 14.1013 15.1181 14.1016L13.8203 14.9609C13.712 15.0326 13.5661 15.0029 13.4945 14.8946C13.4228 14.7864 13.4525 14.6405 13.5607 14.5688L14.1333 14.1896C14.145 14.1819 14.1501 14.1679 14.146 14.1544C14.142 14.1409 14.13 14.132 14.1159 14.132H2.53943C2.53001 14.132 2.52191 14.1283 2.51572 14.1212C2.50953 14.1141 2.50701 14.1056 2.50834 14.0962C2.52698 13.964 2.52698 13.8289 2.50831 13.6966ZM0.156628 13.8964C0.156628 14.4196 0.58064 14.8436 1.10382 14.8436C1.627 14.8436 2.05101 14.4196 2.05101 13.8964C2.05101 13.3732 1.627 12.9492 1.10382 12.9492C0.580676 12.9492 0.156628 13.3732 0.156628 13.8964Z" fill="#74839C"/>
</svg>
