<svg width="16" height="16" viewBox="0 0 16 16" fill="none" xmlns="http://www.w3.org/2000/svg">
<g clip-path="url(#clip0_252_453)">
<path d="M14.0001 0.666656H2.00009C1.64647 0.666656 1.30733 0.807132 1.05729 1.05718C0.807237 1.30723 0.666761 1.64637 0.666761 1.99999V10.3333C0.666197 10.3977 0.684267 10.4608 0.718791 10.5151C0.753315 10.5694 0.802817 10.6125 0.861322 10.6393C0.919827 10.6661 0.984834 10.6754 1.0485 10.666C1.11216 10.6567 1.17176 10.6291 1.22009 10.5867C3.58009 8.55999 3.94009 5.03999 4.00009 3.99999C5.52633 3.69105 6.92187 2.9235 8.00009 1.79999C9.07832 2.9235 10.4739 3.69105 12.0001 3.99999C12.0534 5.06666 12.4068 8.58666 14.7734 10.6133C14.8231 10.6602 14.886 10.6907 14.9536 10.7007C15.0212 10.7106 15.0902 10.6996 15.1513 10.6691C15.2124 10.6385 15.2626 10.5899 15.2952 10.5299C15.3278 10.4698 15.3411 10.4012 15.3334 10.3333V1.99999C15.3334 1.64637 15.193 1.30723 14.9429 1.05718C14.6929 0.807132 14.3537 0.666656 14.0001 0.666656Z" fill="#74839C"/>
<path d="M3.33341 12.6667H2.00008C1.64646 12.6667 1.30732 12.8071 1.05727 13.0572C0.807224 13.3072 0.666748 13.6464 0.666748 14V15C0.666748 15.0884 0.701867 15.1732 0.764379 15.2357C0.826891 15.2982 0.911676 15.3333 1.00008 15.3333H4.33341C4.42182 15.3333 4.5066 15.2982 4.56912 15.2357C4.63163 15.1732 4.66675 15.0884 4.66675 15V14C4.66675 13.6464 4.52627 13.3072 4.27622 13.0572C4.02618 12.8071 3.68704 12.6667 3.33341 12.6667Z" fill="#74839C"/>
<path d="M8.66667 12.6667H7.33333C6.97971 12.6667 6.64057 12.8071 6.39052 13.0572C6.14048 13.3072 6 13.6464 6 14V15C6 15.0884 6.03512 15.1732 6.09763 15.2357C6.16014 15.2982 6.24493 15.3333 6.33333 15.3333H9.66667C9.75507 15.3333 9.83986 15.2982 9.90237 15.2357C9.96488 15.1732 10 15.0884 10 15V14C10 13.6464 9.85952 13.3072 9.60948 13.0572C9.35943 12.8071 9.02029 12.6667 8.66667 12.6667Z" fill="#74839C"/>
<path d="M14.0002 12.6667H12.6668C12.3132 12.6667 11.9741 12.8071 11.724 13.0572C11.474 13.3072 11.3335 13.6464 11.3335 14V15C11.3335 15.0884 11.3686 15.1732 11.4311 15.2357C11.4936 15.2982 11.5784 15.3333 11.6668 15.3333H15.0002C15.0886 15.3333 15.1734 15.2982 15.2359 15.2357C15.2984 15.1732 15.3335 15.0884 15.3335 15V14C15.3335 13.6464 15.193 13.3072 14.943 13.0572C14.6929 12.8071 14.3538 12.6667 14.0002 12.6667Z" fill="#74839C"/>
<path d="M9.00008 12C9.08849 12 9.17327 11.9649 9.23578 11.9024C9.2983 11.8399 9.33341 11.7551 9.33341 11.6667V11C9.33341 10.7348 9.22806 10.4804 9.04052 10.2929C8.85299 10.1054 8.59863 10 8.33341 10H7.66675C7.40153 10 7.14718 10.1054 6.95964 10.2929C6.7721 10.4804 6.66675 10.7348 6.66675 11V11.6667C6.66675 11.7551 6.70187 11.8399 6.76438 11.9024C6.82689 11.9649 6.91168 12 7.00008 12H9.00008Z" fill="#74839C"/>
<path d="M13.3334 11.6667V11C13.3334 10.7348 13.2281 10.4804 13.0405 10.2929C12.853 10.1054 12.5986 10 12.3334 10H11.6667C11.4015 10 11.1472 10.1054 10.9596 10.2929C10.7721 10.4804 10.6667 10.7348 10.6667 11V11.6667C10.6667 11.7551 10.7019 11.8399 10.7644 11.9024C10.8269 11.9649 10.9117 12 11.0001 12H13.0001C13.0885 12 13.1733 11.9649 13.2358 11.9024C13.2983 11.8399 13.3334 11.7551 13.3334 11.6667Z" fill="#74839C"/>
<path d="M4.33341 10H3.66675C3.40153 10 3.14718 10.1054 2.95964 10.2929C2.7721 10.4804 2.66675 10.7348 2.66675 11V11.6667C2.66675 11.7551 2.70187 11.8399 2.76438 11.9024C2.82689 11.9649 2.91168 12 3.00008 12H5.00008C5.08849 12 5.17327 11.9649 5.23578 11.9024C5.2983 11.8399 5.33341 11.7551 5.33341 11.6667V11C5.33341 10.7348 5.22806 10.4804 5.04052 10.2929C4.85299 10.1054 4.59863 10 4.33341 10Z" fill="#74839C"/>
</g>
<defs>
<clipPath id="clip0_252_453">
<rect width="16" height="16" fill="white"/>
</clipPath>
</defs>
</svg>
