<svg width="16" height="16" viewBox="0 0 16 16" fill="none" xmlns="http://www.w3.org/2000/svg">
<g clip-path="url(#clip0_252_412)">
<path d="M13.8472 13.25C13.8804 13.2744 13.9191 13.2902 13.9598 13.296C14.0005 13.3019 14.0421 13.2976 14.0808 13.2835C14.1347 13.2624 14.192 13.2511 14.25 13.25C14.3826 13.25 14.5098 13.3027 14.6036 13.3964C14.6973 13.4902 14.75 13.6174 14.75 13.75C14.75 13.8826 14.6973 14.0098 14.6036 14.1036C14.5098 14.1973 14.3826 14.25 14.25 14.25H11.75C11.6174 14.25 11.4902 14.1973 11.3964 14.1036C11.3027 14.0098 11.25 13.8826 11.25 13.75C11.25 13.6174 11.3027 13.4902 11.3964 13.3964C11.4902 13.3027 11.6174 13.25 11.75 13.25C11.8079 13.2507 11.8652 13.2616 11.9192 13.2823C11.9579 13.2963 11.9994 13.3006 12.0401 13.2948C12.0808 13.289 12.1195 13.2732 12.1526 13.2489C12.1858 13.2246 12.2124 13.1924 12.2302 13.1553C12.248 13.1182 12.2563 13.0773 12.2545 13.0363C12.2545 13.028 12.251 13.0077 12.25 13C12.2494 12.9015 12.2682 12.8039 12.3054 12.7126C12.3425 12.6214 12.3973 12.5384 12.4665 12.4684C12.6063 12.3269 12.7966 12.2467 12.9955 12.2455C13.1944 12.2443 13.3857 12.3222 13.5271 12.462C13.6686 12.6018 13.7488 12.7921 13.75 12.991C13.75 12.9987 13.7457 13.028 13.7455 13.0363C13.7435 13.0775 13.7517 13.1186 13.7695 13.1559C13.7872 13.1932 13.8139 13.2256 13.8472 13.25ZM4.25 12.25H6V13H4.9035C4.72336 12.8401 4.49084 12.7519 4.25 12.752V12.25ZM6.5 11.5C6.5 11.4506 6.51466 11.4022 6.54213 11.3611C6.5696 11.32 6.60865 11.288 6.65433 11.269C6.70001 11.2501 6.75028 11.2452 6.79877 11.2548C6.84727 11.2645 6.89181 11.2883 6.92678 11.3232C6.96174 11.3582 6.98555 11.4027 6.9952 11.4512C7.00484 11.4997 6.99989 11.55 6.98097 11.5957C6.96205 11.6414 6.93001 11.6804 6.88889 11.7079C6.84778 11.7353 6.79945 11.75 6.75 11.75C6.6837 11.75 6.62011 11.7237 6.57322 11.6768C6.52634 11.6299 6.5 11.5663 6.5 11.5ZM5.21425 13.5H6V14.25H5.111C5.17911 14.1389 5.22345 14.0149 5.24122 13.8858C5.25899 13.7567 5.24981 13.6254 5.21425 13.5ZM6.5 12.25H7V14.25H6.5V12.25ZM7.296 7.75H8.704C8.65309 7.89614 8.55796 8.02281 8.43181 8.11244C8.30567 8.20208 8.15475 8.25024 8 8.25024C7.84525 8.25024 7.69433 8.20208 7.56819 8.11244C7.44204 8.02281 7.34691 7.89614 7.296 7.75ZM11.0977 13H10V12.25H11.75V12.7522C11.5099 12.754 11.2785 12.8419 11.0977 13ZM9 11.5C9 11.4506 9.01466 11.4022 9.04213 11.3611C9.0696 11.32 9.10865 11.288 9.15433 11.269C9.20001 11.2501 9.25028 11.2452 9.29877 11.2548C9.34727 11.2645 9.39181 11.2883 9.42678 11.3232C9.46174 11.3582 9.48555 11.4027 9.4952 11.4512C9.50484 11.4997 9.49989 11.55 9.48097 11.5957C9.46205 11.6414 9.43 11.6804 9.38889 11.7079C9.34778 11.7353 9.29945 11.75 9.25 11.75C9.1837 11.75 9.12011 11.7237 9.07322 11.6768C9.02634 11.6299 9 11.5663 9 11.5ZM9 12.25H9.5V14.25H9V12.25ZM10 13.5H10.7858C10.7502 13.6254 10.741 13.7567 10.7588 13.8858C10.7766 14.0149 10.8209 14.1389 10.889 14.25H10V13.5ZM13.25 11.7775C13.0768 11.7399 12.8975 11.7408 12.7247 11.7801C12.5519 11.8195 12.3899 11.8962 12.25 12.005V8.75H13.25V11.7775ZM13.75 8.25H11.75V7.75H13.75V8.25ZM13.6858 6.25H11.4915C11.4543 5.38351 11.2191 4.53707 10.804 3.77558C10.3888 3.01408 9.80485 2.35778 9.09675 1.857C10.2028 2.07122 11.2237 2.59942 12.0375 3.37845C12.8513 4.15748 13.4235 5.15439 13.6858 6.25ZM8 1.784L8.27 1.9295C9.05803 2.35343 9.72286 2.97418 10.1998 3.73131C10.6767 4.48845 10.9495 5.35617 10.9915 6.25H5.0085C5.05054 5.35617 5.3233 4.48845 5.80022 3.73131C6.27714 2.97418 6.94197 2.35343 7.73 1.9295L8 1.784ZM7.5 1.25C7.5 1.11739 7.55268 0.990215 7.64645 0.896447C7.74021 0.802678 7.86739 0.75 8 0.75C8.13261 0.75 8.25979 0.802678 8.35355 0.896447C8.44732 0.990215 8.5 1.11739 8.5 1.25V1.27225C8.3345 1.259 8.16825 1.25 8 1.25C7.83175 1.25 7.6655 1.259 7.5 1.27225V1.25ZM6.90325 1.857C6.19515 2.35778 5.61115 3.01408 5.19604 3.77558C4.78093 4.53707 4.54574 5.38351 4.5085 6.25H2.31425C2.57651 5.15439 3.14874 4.15748 3.96253 3.37845C4.77632 2.59942 5.79724 2.07122 6.90325 1.857ZM1.75 6.75H14.25V7.25H1.75V6.75ZM4.25 7.75V8.25H2.25V7.75H4.25ZM2.75 8.75H3.75V12.005C3.61012 11.8962 3.44807 11.8195 3.27528 11.7801C3.10249 11.7408 2.92318 11.7399 2.75 11.7775V8.75ZM1.25 13.75C1.25 13.6174 1.30268 13.4902 1.39645 13.3964C1.49021 13.3027 1.61739 13.25 1.75 13.25C1.80788 13.2507 1.86518 13.2616 1.91925 13.2823C1.9579 13.2963 1.99942 13.3006 2.04013 13.2948C2.08084 13.289 2.11949 13.2732 2.15264 13.2489C2.1858 13.2246 2.21245 13.1924 2.23021 13.1553C2.24798 13.1182 2.25632 13.0773 2.2545 13.0363C2.25425 13.028 2.25 13.0077 2.25 13C2.24941 12.9015 2.26822 12.8039 2.30537 12.7126C2.34251 12.6214 2.39726 12.5384 2.46649 12.4684C2.6063 12.3269 2.79659 12.2467 2.9955 12.2455C3.19441 12.2443 3.38565 12.3222 3.52715 12.462C3.66864 12.6018 3.74881 12.7921 3.75 12.991C3.75 12.9987 3.74575 13.028 3.7455 13.0363C3.74368 13.0773 3.75202 13.1182 3.76979 13.1553C3.78755 13.1924 3.8142 13.2246 3.84736 13.2489C3.88051 13.2732 3.91916 13.289 3.95987 13.2948C4.00058 13.3006 4.0421 13.2963 4.08075 13.2823C4.13482 13.2616 4.19212 13.2507 4.25 13.25C4.38261 13.25 4.50979 13.3027 4.60355 13.3964C4.69732 13.4902 4.75 13.6174 4.75 13.75C4.75 13.8826 4.69732 14.0098 4.60355 14.1036C4.50979 14.1973 4.38261 14.25 4.25 14.25H1.75C1.61739 14.25 1.49021 14.1973 1.39645 14.1036C1.30268 14.0098 1.25 13.8826 1.25 13.75ZM15.25 15.25H0.75V14.75H15.25V15.25Z" fill="#74839C"/>
</g>
<defs>
<clipPath id="clip0_252_412">
<rect width="16" height="16" fill="white"/>
</clipPath>
</defs>
</svg>
