<svg width="23" height="23" viewBox="0 0 23 23" fill="none" xmlns="http://www.w3.org/2000/svg">
<path d="M18.8337 1.41667H6.00033C5.39843 1.41667 4.80244 1.53522 4.24636 1.76556C3.69028 1.99589 3.18502 2.3335 2.75942 2.7591C1.89988 3.61864 1.41699 4.78443 1.41699 6.00001V17C1.41699 17.6019 1.53554 18.1979 1.76588 18.754C1.99621 19.31 2.33382 19.8153 2.75942 20.2409C3.61896 21.1005 4.78475 21.5833 6.00033 21.5833H17.0003C17.6022 21.5833 18.1982 21.4648 18.7543 21.2345C19.3104 21.0041 19.8156 20.6665 20.2412 20.2409C20.6668 19.8153 21.0044 19.31 21.2348 18.754C21.4651 18.1979 21.5837 17.6019 21.5837 17V4.16667C21.5837 3.43733 21.2939 2.73785 20.7782 2.22213C20.2625 1.7064 19.563 1.41667 18.8337 1.41667ZM19.7503 17C19.7503 17.7294 19.4606 18.4288 18.9449 18.9446C18.4291 19.4603 17.7297 19.75 17.0003 19.75H6.00033C5.27098 19.75 4.57151 19.4603 4.05578 18.9446C3.54006 18.4288 3.25033 17.7294 3.25033 17V6.00001C3.25033 5.27066 3.54006 4.57119 4.05578 4.05546C4.57151 3.53974 5.27098 3.25001 6.00033 3.25001H18.8337C19.0768 3.25001 19.3099 3.34658 19.4818 3.51849C19.6538 3.6904 19.7503 3.92356 19.7503 4.16667V17Z" fill="#011839"/>
<path d="M16.9998 5.12917H10.4732C10.2301 5.12917 9.99691 5.22574 9.825 5.39765C9.65309 5.56956 9.55651 5.80272 9.55651 6.04583C9.55651 6.28895 9.65309 6.52211 9.825 6.69401C9.99691 6.86592 10.2301 6.9625 10.4732 6.9625H14.7448L7.22818 14.47C7.14226 14.5552 7.07407 14.6566 7.02753 14.7683C6.98099 14.88 6.95703 14.9998 6.95703 15.1208C6.95703 15.2418 6.98099 15.3617 7.02753 15.4734C7.07407 15.5851 7.14226 15.6864 7.22818 15.7717C7.3134 15.8576 7.41478 15.9258 7.52648 15.9723C7.63819 16.0189 7.758 16.0428 7.87901 16.0428C8.00002 16.0428 8.11984 16.0189 8.23154 15.9723C8.34325 15.9258 8.44463 15.8576 8.52985 15.7717L16.0832 8.255V12.5267C16.0832 12.7698 16.1798 13.0029 16.3517 13.1748C16.5236 13.3468 16.7567 13.4433 16.9998 13.4433C17.243 13.4433 17.4761 13.3468 17.648 13.1748C17.8199 13.0029 17.9165 12.7698 17.9165 12.5267V6.04583C17.9165 5.80272 17.8199 5.56956 17.648 5.39765C17.4761 5.22574 17.243 5.12917 16.9998 5.12917Z" fill="#005FEA"/>
</svg>
