<svg width="16" height="16" viewBox="0 0 16 16" fill="none" xmlns="http://www.w3.org/2000/svg">
<g clip-path="url(#clip0_230_171)">
<path d="M0 12C0 12.4715 0.187301 12.9237 0.520699 13.2571C0.854097 13.5905 1.30628 13.7778 1.77778 13.7778H14.2222C14.6937 13.7778 15.1459 13.5905 15.4793 13.2571C15.8127 12.9237 16 12.4715 16 12V9.77777H0V12Z" fill="#138808"/>
<path d="M16 6.22223V4.00001C16 3.52851 15.8127 3.07633 15.4793 2.74293C15.1459 2.40953 14.6937 2.22223 14.2222 2.22223H1.77778C1.30628 2.22223 0.854097 2.40953 0.520699 2.74293C0.187301 3.07633 0 3.52851 0 4.00001L0 6.22223H16Z" fill="#FF9933"/>
<path d="M0 6.07422H16V9.92622H0V6.07422Z" fill="#F7F7F7"/>
<path d="M7.99995 9.77778C8.98179 9.77778 9.77772 8.98185 9.77772 8.00001C9.77772 7.01817 8.98179 6.22223 7.99995 6.22223C7.01811 6.22223 6.22217 7.01817 6.22217 8.00001C6.22217 8.98185 7.01811 9.77778 7.99995 9.77778Z" fill="#000080"/>
<path d="M8 9.5C8.82843 9.5 9.5 8.82843 9.5 8C9.5 7.17157 8.82843 6.5 8 6.5C7.17157 6.5 6.5 7.17157 6.5 8C6.5 8.82843 7.17157 9.5 8 9.5Z" fill="#F7F7F7"/>
<path d="M8.04455 7.44446L8.0001 7.73334L7.95566 7.44446L8.0001 6.57779L8.04455 7.44446ZM7.6321 6.62623L7.81344 7.47468L7.93121 7.74223L7.89921 7.45201L7.6321 6.62623ZM7.28899 6.76846L7.68366 7.5409L7.86677 7.7689L7.76099 7.49646L7.28899 6.76846ZM6.99433 6.99423L7.57566 7.63868L7.81166 7.81157L7.63877 7.57557L6.99433 6.99423ZM6.76855 7.2889L7.49655 7.7609L7.76899 7.86668L7.54099 7.68357L6.76855 7.2889ZM6.62633 7.63201L7.4521 7.89912L7.74233 7.93112L7.47477 7.81334L6.62633 7.63201ZM6.57788 8.00001L7.44455 8.04446L7.73344 8.00001L7.44455 7.95557L6.57788 8.00001ZM6.62633 8.36801L7.47477 8.18668L7.74233 8.0689L7.4521 8.1009L6.62633 8.36801ZM6.76855 8.71112L7.54099 8.31646L7.76899 8.13334L7.49655 8.23912L6.76855 8.71112ZM6.99433 9.00579L7.63877 8.42446L7.81166 8.18846L7.57566 8.36134L6.99433 9.00579ZM7.28899 9.23157L7.76099 8.50357L7.86677 8.23112L7.68366 8.45912L7.28899 9.23157ZM7.6321 9.37379L7.89921 8.54801L7.93121 8.25779L7.81344 8.52534L7.6321 9.37379ZM8.0001 9.42223L8.04455 8.55557L8.0001 8.26668L7.95566 8.55557L8.0001 9.42223ZM8.3681 9.37379L8.18677 8.52534L8.06899 8.25779L8.10099 8.54801L8.3681 9.37379ZM8.71121 9.23157L8.31655 8.45912L8.13344 8.23112L8.23921 8.50357L8.71121 9.23157ZM9.00588 9.00579L8.42455 8.36134L8.18855 8.18846L8.36144 8.42446L9.00588 9.00579ZM9.23166 8.71112L8.50366 8.23912L8.23121 8.13334L8.45921 8.31646L9.23166 8.71112ZM9.37388 8.36801L8.5481 8.1009L8.25788 8.0689L8.52544 8.18668L9.37388 8.36801ZM9.42233 8.00001L8.55566 7.95557L8.26677 8.00001L8.55566 8.04446L9.42233 8.00001ZM9.37388 7.63201L8.52544 7.81334L8.25788 7.93112L8.5481 7.89912L9.37388 7.63201ZM9.23166 7.2889L8.45921 7.68357L8.23121 7.86668L8.50366 7.7609L9.23166 7.2889ZM9.00588 6.99423L8.36144 7.57557L8.18855 7.81157L8.42455 7.63868L9.00588 6.99423ZM8.71121 6.76846L8.23921 7.49646L8.13344 7.7689L8.31655 7.5409L8.71121 6.76846ZM8.3681 6.62623L8.10099 7.45201L8.06899 7.74223L8.18677 7.47468L8.3681 6.62623Z" fill="#6666B3"/>
<path d="M7.80446 6.60399C7.85356 6.60399 7.89335 6.56419 7.89335 6.5151C7.89335 6.46601 7.85356 6.42621 7.80446 6.42621C7.75537 6.42621 7.71558 6.46601 7.71558 6.5151C7.71558 6.56419 7.75537 6.60399 7.80446 6.60399Z" fill="#000080"/>
<path d="M7.42678 6.70533C7.47587 6.70533 7.51567 6.66554 7.51567 6.61645C7.51567 6.56735 7.47587 6.52756 7.42678 6.52756C7.37769 6.52756 7.33789 6.56735 7.33789 6.61645C7.33789 6.66554 7.37769 6.70533 7.42678 6.70533Z" fill="#000080"/>
<path d="M7.08816 6.90043C7.13725 6.90043 7.17705 6.86064 7.17705 6.81155C7.17705 6.76245 7.13725 6.72266 7.08816 6.72266C7.03906 6.72266 6.99927 6.76245 6.99927 6.81155C6.99927 6.86064 7.03906 6.90043 7.08816 6.90043Z" fill="#000080"/>
<path d="M6.81155 7.17686C6.86064 7.17686 6.90043 7.13707 6.90043 7.08797C6.90043 7.03888 6.86064 6.99908 6.81155 6.99908C6.76245 6.99908 6.72266 7.03888 6.72266 7.08797C6.72266 7.13707 6.76245 7.17686 6.81155 7.17686Z" fill="#000080"/>
<path d="M6.61648 7.51555C6.66557 7.51555 6.70537 7.47575 6.70537 7.42666C6.70537 7.37756 6.66557 7.33777 6.61648 7.33777C6.56738 7.33777 6.52759 7.37756 6.52759 7.42666C6.52759 7.47575 6.56738 7.51555 6.61648 7.51555Z" fill="#000080"/>
<path d="M6.51516 7.89332C6.56425 7.89332 6.60405 7.85353 6.60405 7.80443C6.60405 7.75534 6.56425 7.71555 6.51516 7.71555C6.46607 7.71555 6.42627 7.75534 6.42627 7.80443C6.42627 7.85353 6.46607 7.89332 6.51516 7.89332Z" fill="#000080"/>
<path d="M6.51516 8.28444C6.56425 8.28444 6.60405 8.24464 6.60405 8.19555C6.60405 8.14646 6.56425 8.10666 6.51516 8.10666C6.46607 8.10666 6.42627 8.14646 6.42627 8.19555C6.42627 8.24464 6.46607 8.28444 6.51516 8.28444Z" fill="#000080"/>
<path d="M6.61648 8.66221C6.66557 8.66221 6.70537 8.62242 6.70537 8.57333C6.70537 8.52423 6.66557 8.48444 6.61648 8.48444C6.56738 8.48444 6.52759 8.52423 6.52759 8.57333C6.52759 8.62242 6.56738 8.66221 6.61648 8.66221Z" fill="#000080"/>
<path d="M6.81155 9.00087C6.86064 9.00087 6.90043 8.96107 6.90043 8.91198C6.90043 8.86289 6.86064 8.82309 6.81155 8.82309C6.76245 8.82309 6.72266 8.86289 6.72266 8.91198C6.72266 8.96107 6.76245 9.00087 6.81155 9.00087Z" fill="#000080"/>
<path d="M7.08816 9.27733C7.13725 9.27733 7.17705 9.23753 7.17705 9.18844C7.17705 9.13934 7.13725 9.09955 7.08816 9.09955C7.03906 9.09955 6.99927 9.13934 6.99927 9.18844C6.99927 9.23753 7.03906 9.27733 7.08816 9.27733Z" fill="#000080"/>
<path d="M7.42678 9.47242C7.47587 9.47242 7.51567 9.43263 7.51567 9.38354C7.51567 9.33444 7.47587 9.29465 7.42678 9.29465C7.37769 9.29465 7.33789 9.33444 7.33789 9.38354C7.33789 9.43263 7.37769 9.47242 7.42678 9.47242Z" fill="#000080"/>
<path d="M7.80446 9.57377C7.85356 9.57377 7.89335 9.53398 7.89335 9.48488C7.89335 9.43579 7.85356 9.396 7.80446 9.396C7.75537 9.396 7.71558 9.43579 7.71558 9.48488C7.71558 9.53398 7.75537 9.57377 7.80446 9.57377Z" fill="#000080"/>
<path d="M8.19558 9.57377C8.24467 9.57377 8.28447 9.53398 8.28447 9.48488C8.28447 9.43579 8.24467 9.396 8.19558 9.396C8.14649 9.396 8.10669 9.43579 8.10669 9.48488C8.10669 9.53398 8.14649 9.57377 8.19558 9.57377Z" fill="#000080"/>
<path d="M8.57326 9.47242C8.62236 9.47242 8.66215 9.43263 8.66215 9.38354C8.66215 9.33444 8.62236 9.29465 8.57326 9.29465C8.52417 9.29465 8.48438 9.33444 8.48438 9.38354C8.48438 9.43263 8.52417 9.47242 8.57326 9.47242Z" fill="#000080"/>
<path d="M8.91213 9.27733C8.96122 9.27733 9.00102 9.23753 9.00102 9.18844C9.00102 9.13934 8.96122 9.09955 8.91213 9.09955C8.86304 9.09955 8.82324 9.13934 8.82324 9.18844C8.82324 9.23753 8.86304 9.27733 8.91213 9.27733Z" fill="#000080"/>
<path d="M9.1885 9.00087C9.23759 9.00087 9.27739 8.96107 9.27739 8.91198C9.27739 8.86289 9.23759 8.82309 9.1885 8.82309C9.13941 8.82309 9.09961 8.86289 9.09961 8.91198C9.09961 8.96107 9.13941 9.00087 9.1885 9.00087Z" fill="#000080"/>
<path d="M9.38357 8.66221C9.43266 8.66221 9.47246 8.62242 9.47246 8.57333C9.47246 8.52423 9.43266 8.48444 9.38357 8.48444C9.33447 8.48444 9.29468 8.52423 9.29468 8.57333C9.29468 8.62242 9.33447 8.66221 9.38357 8.66221Z" fill="#000080"/>
<path d="M9.48488 8.28444C9.53398 8.28444 9.57377 8.24464 9.57377 8.19555C9.57377 8.14646 9.53398 8.10666 9.48488 8.10666C9.43579 8.10666 9.396 8.14646 9.396 8.19555C9.396 8.24464 9.43579 8.28444 9.48488 8.28444Z" fill="#000080"/>
<path d="M9.48488 7.89332C9.53398 7.89332 9.57377 7.85353 9.57377 7.80443C9.57377 7.75534 9.53398 7.71555 9.48488 7.71555C9.43579 7.71555 9.396 7.75534 9.396 7.80443C9.396 7.85353 9.43579 7.89332 9.48488 7.89332Z" fill="#000080"/>
<path d="M9.38357 7.51555C9.43266 7.51555 9.47246 7.47575 9.47246 7.42666C9.47246 7.37756 9.43266 7.33777 9.38357 7.33777C9.33447 7.33777 9.29468 7.37756 9.29468 7.42666C9.29468 7.47575 9.33447 7.51555 9.38357 7.51555Z" fill="#000080"/>
<path d="M9.1885 7.17686C9.23759 7.17686 9.27739 7.13707 9.27739 7.08797C9.27739 7.03888 9.23759 6.99908 9.1885 6.99908C9.13941 6.99908 9.09961 7.03888 9.09961 7.08797C9.09961 7.13707 9.13941 7.17686 9.1885 7.17686Z" fill="#000080"/>
<path d="M8.91213 6.90043C8.96122 6.90043 9.00102 6.86064 9.00102 6.81155C9.00102 6.76245 8.96122 6.72266 8.91213 6.72266C8.86304 6.72266 8.82324 6.76245 8.82324 6.81155C8.82324 6.86064 8.86304 6.90043 8.91213 6.90043Z" fill="#000080"/>
<path d="M8.57326 6.70533C8.62236 6.70533 8.66215 6.66554 8.66215 6.61645C8.66215 6.56735 8.62236 6.52756 8.57326 6.52756C8.52417 6.52756 8.48438 6.56735 8.48438 6.61645C8.48438 6.66554 8.52417 6.70533 8.57326 6.70533Z" fill="#000080"/>
<path d="M8.19558 6.60399C8.24467 6.60399 8.28447 6.56419 8.28447 6.5151C8.28447 6.46601 8.24467 6.42621 8.19558 6.42621C8.14649 6.42621 8.10669 6.46601 8.10669 6.5151C8.10669 6.56419 8.14649 6.60399 8.19558 6.60399Z" fill="#000080"/>
<path d="M8.0001 8.39998C8.22101 8.39998 8.4001 8.22089 8.4001 7.99998C8.4001 7.77906 8.22101 7.59998 8.0001 7.59998C7.77918 7.59998 7.6001 7.77906 7.6001 7.99998C7.6001 8.22089 7.77918 8.39998 8.0001 8.39998Z" fill="#000080"/>
</g>
<defs>
<clipPath id="clip0_230_171">
<rect width="16" height="16" fill="white"/>
</clipPath>
</defs>
</svg>
