<svg width="25" height="24" viewBox="0 0 25 24" fill="none" xmlns="http://www.w3.org/2000/svg">
<path d="M21.5 3H18.875V2.25H19.625C20.0375 2.25 20.375 1.9125 20.375 1.5C20.375 1.0875 20.0375 0.75 19.625 0.75H5.375C4.9625 0.75 4.625 1.0875 4.625 1.5C4.625 1.9125 4.9625 2.25 5.375 2.25H6.125V3H3.5C2.2625 3 1.25 4.0125 1.25 5.25V6.75C1.25 8.4075 2.5925 9.75 4.25 9.75H6.125C6.125 10.455 6.47 11.13 7.0475 11.5575L10.5575 14.1075C10.685 14.1975 10.8425 14.25 11 14.25H14C14.1575 14.25 14.315 14.1975 14.4425 14.1075L17.96 11.55C18.53 11.1225 18.8675 10.455 18.875 9.75H20.75C22.4075 9.75 23.75 8.4075 23.75 6.75V5.25C23.75 4.0125 22.7375 3 21.5 3ZM2.75 6.75V5.25C2.75 4.8375 3.0875 4.5 3.5 4.5H6.125V8.25H4.25C3.425 8.25 2.75 7.575 2.75 6.75ZM17.0675 10.3425L13.7525 12.75H11.24L7.9325 10.35C7.7375 10.2075 7.6175 9.975 7.6175 9.735V2.25H17.3675V9.735C17.3675 9.975 17.2475 10.2 17.06 10.3425H17.0675ZM22.25 6.75C22.25 7.575 21.575 8.25 20.75 8.25H18.875V4.5H21.5C21.9125 4.5 22.25 4.8375 22.25 5.25V6.75Z" fill="#001942"/>
<path d="M11 3.75H10.25C9.8375 3.75 9.5 4.0875 9.5 4.5C9.5 4.9125 9.8375 5.25 10.25 5.25H11C11.4125 5.25 11.75 4.9125 11.75 4.5C11.75 4.0875 11.4125 3.75 11 3.75Z" fill="#001942"/>
<path d="M14.75 3.75H14C13.5875 3.75 13.25 4.0875 13.25 4.5C13.25 4.9125 13.5875 5.25 14 5.25H14.75C15.1625 5.25 15.5 4.9125 15.5 4.5C15.5 4.0875 15.1625 3.75 14.75 3.75Z" fill="#001942"/>
<path d="M19.25 21.75H17.75V20.25C17.75 19.8375 17.4125 19.5 17 19.5H8C7.5875 19.5 7.25 19.8375 7.25 20.25V21.75H5.75C5.3375 21.75 5 22.0875 5 22.5C5 22.9125 5.3375 23.25 5.75 23.25H19.25C19.6625 23.25 20 22.9125 20 22.5C20 22.0875 19.6625 21.75 19.25 21.75Z" fill="#005FEA"/>
<path d="M15.08 15.75H9.92L9.5975 18H15.4025L15.08 15.75Z" fill="#005FEA"/>
</svg>
