<svg width="24" height="24" viewBox="0 0 24 24" fill="none" xmlns="http://www.w3.org/2000/svg">
<path d="M3.98718 17.2308L4.54103 17.4615L3.98718 17.2308ZM3.15385 19.2308L3.7077 19.4615L3.15385 19.2308ZM20.8462 19.2308L20.2923 19.4615V19.4615L20.8462 19.2308ZM20.0128 17.2308L20.5667 17L20.0128 17.2308ZM16 15.4C15.6686 15.4 15.4 15.6686 15.4 16C15.4 16.3314 15.6686 16.6 16 16.6V15.4ZM8 16.6C8.33137 16.6 8.6 16.3314 8.6 16C8.6 15.6686 8.33137 15.4 8 15.4V16.6ZM18.4 9.11111C18.4 10.8798 17.3982 12.9703 16.0207 14.6475C15.3393 15.4772 14.588 16.1779 13.8653 16.6662C13.1297 17.1632 12.4836 17.4 12 17.4V18.6C12.8289 18.6 13.7141 18.2166 14.5371 17.6606C15.3729 17.0958 16.2076 16.3107 16.948 15.4091C18.4143 13.6237 19.6 11.2697 19.6 9.11111H18.4ZM12 17.4C11.5164 17.4 10.8703 17.1632 10.1347 16.6662C9.412 16.1779 8.66069 15.4772 7.9793 14.6475C6.60184 12.9703 5.6 10.8798 5.6 9.11111H4.4C4.4 11.2697 5.58567 13.6237 7.05196 15.4091C7.79244 16.3107 8.62707 17.0958 9.46294 17.6606C10.2859 18.2166 11.1711 18.6 12 18.6V17.4ZM5.6 9.11111C5.6 5.50618 8.47425 2.6 12 2.6V1.4C7.79377 1.4 4.4 4.86133 4.4 9.11111H5.6ZM12 2.6C15.5258 2.6 18.4 5.50618 18.4 9.11111H19.6C19.6 4.86133 16.2062 1.4 12 1.4V2.6ZM13.9 9C13.9 10.0493 13.0493 10.9 12 10.9V12.1C13.7121 12.1 15.1 10.7121 15.1 9H13.9ZM12 10.9C10.9507 10.9 10.1 10.0493 10.1 9H8.9C8.9 10.7121 10.2879 12.1 12 12.1V10.9ZM10.1 9C10.1 7.95066 10.9507 7.1 12 7.1V5.9C10.2879 5.9 8.9 7.28792 8.9 9H10.1ZM12 7.1C13.0493 7.1 13.9 7.95066 13.9 9H15.1C15.1 7.28792 13.7121 5.9 12 5.9V7.1ZM3.43334 17L2.6 19L3.7077 19.4615L4.54103 17.4615L3.43334 17ZM5 22.6H19V21.4H5V22.6ZM21.4 19L20.5667 17L19.459 17.4615L20.2923 19.4615L21.4 19ZM18.1667 15.4H16V16.6H18.1667V15.4ZM5.83334 16.6H8V15.4H5.83334V16.6ZM20.5667 17C20.163 16.0311 19.2163 15.4 18.1667 15.4V16.6C18.7319 16.6 19.2416 16.9398 19.459 17.4615L20.5667 17ZM19 22.6C20.8553 22.6 22.1136 20.7126 21.4 19L20.2923 19.4615C20.6765 20.3837 19.999 21.4 19 21.4V22.6ZM2.6 19C1.88643 20.7126 3.1447 22.6 5 22.6V21.4C4.00099 21.4 3.32346 20.3837 3.7077 19.4615L2.6 19ZM4.54103 17.4615C4.75841 16.9398 5.26816 16.6 5.83334 16.6V15.4C4.78371 15.4 3.83704 16.0311 3.43334 17L4.54103 17.4615Z" fill="#28303F"/>
</svg>
