<svg width="22" height="21" viewBox="0 0 22 21" fill="none" xmlns="http://www.w3.org/2000/svg">
<path d="M4.65388 12.7692H4.26933C3.73719 12.7692 3.26087 13.0993 3.07402 13.5976L1.49301 17.8136C1.18004 18.6482 1.79699 19.5385 2.68832 19.5385H19.3118C20.2031 19.5385 20.82 18.6482 20.5071 17.8136L18.9261 13.5976C18.7392 13.0993 18.2629 12.7692 17.7307 12.7692H17.3462" stroke="#005FEA" stroke-width="1.2766" stroke-linecap="round"/>
<path fill-rule="evenodd" clip-rule="evenodd" d="M9.78715 15.0389C10.0407 15.2701 10.2526 15.4522 10.4021 15.5773C10.8151 15.9227 11.1543 15.9486 11.5983 15.5773C11.7478 15.4522 11.9597 15.2701 12.2132 15.0389C12.7195 14.5772 13.3958 13.9159 14.0738 13.1182C15.4054 11.5515 16.8464 9.34053 16.8464 7.02619C16.8464 3.74272 14.2311 1.0769 11.0002 1.0769C7.76929 1.0769 5.15405 3.74272 5.15405 7.02619C5.15405 9.34053 6.59498 11.5515 7.9266 13.1182C8.60458 13.9159 9.28088 14.5772 9.78715 15.0389ZM8.66173 7.00503C8.66173 5.69542 9.70871 4.63378 11.0002 4.63378C12.2917 4.63378 13.3387 5.69542 13.3387 7.00503C13.3387 8.31464 12.2917 9.37628 11.0002 9.37628C9.70871 9.37628 8.66173 8.31464 8.66173 7.00503Z" stroke="#001942" stroke-width="1.2766"/>
</svg>
