<svg width="24" height="24" viewBox="0 0 24 24" fill="none" xmlns="http://www.w3.org/2000/svg">
<g clip-path="url(#clip0_762_1951)">
<path d="M14.6071 15.4189C14.6071 15.405 14.6118 15.3795 14.621 15.3422L15.9184 11.0873C15.9555 10.971 16.0405 10.8814 16.173 10.8186C16.3056 10.7558 16.4578 10.7244 16.6299 10.7244C16.8019 10.7244 16.9543 10.7558 17.0868 10.8186C17.2194 10.8814 17.3041 10.971 17.3414 11.0873L18.6458 15.3422C18.6551 15.3795 18.6599 15.405 18.6599 15.4189C18.6599 15.5399 18.5842 15.6446 18.4331 15.7329C18.282 15.8213 18.125 15.8653 17.9623 15.8653C17.7623 15.8653 17.6437 15.7981 17.6066 15.6632L17.3694 14.7913H15.8976L15.6605 15.6632C15.6232 15.7981 15.5045 15.8653 15.3047 15.8653C15.1418 15.8653 14.9848 15.8213 14.8337 15.7329C14.6826 15.6446 14.6071 15.5399 14.6071 15.4189ZM16.1208 13.9542H17.1391L16.6299 12.0848L16.1208 13.9542Z" fill="#005FEA"/>
<path d="M20.0635 8.12196H15.4V5.83313C15.4 4.00193 13.9103 2.51202 12.0789 2.51202H3.32111C1.48991 2.51202 0 4.00193 0 5.83313V9.73212C0 11.5383 1.44923 13.0124 3.24618 13.0525C3.23423 13.4313 3.19194 13.8532 3.11969 14.3128C3.0708 14.6231 3.18623 14.928 3.42816 15.1285C3.59051 15.263 3.78837 15.333 3.99051 15.333C4.09113 15.333 4.19282 15.3155 4.29184 15.2801C4.95018 15.0448 6.09539 14.4496 6.68593 13.0532H9.97725V15.3422C9.97725 17.1734 11.4672 18.6633 13.2984 18.6633H16.6987C17.2894 20.0598 18.4344 20.6548 19.093 20.8903C19.1918 20.9256 19.2935 20.9429 19.3941 20.9429C19.5962 20.9429 19.7941 20.873 19.9565 20.7384C20.1986 20.5381 20.3138 20.233 20.2649 19.9227C20.1927 19.4633 20.1504 19.0412 20.1384 18.6625C21.9354 18.6225 23.3846 17.1485 23.3846 15.3422V11.4433C23.3846 9.61187 21.8947 8.12196 20.0635 8.12196ZM22.4712 15.3421C22.4712 16.6698 21.3911 17.7499 20.0635 17.7499H19.6826C19.4371 17.7499 19.2355 17.944 19.2262 18.1895C19.2064 18.7169 19.2496 19.3302 19.3547 20.0134C18.6897 19.7656 17.8369 19.2271 17.4471 18.0617C17.3849 17.8755 17.2104 17.7499 17.0141 17.7499H13.2984C11.9708 17.7499 10.8907 16.6698 10.8907 15.3421V12.597C10.8907 12.5969 10.8907 12.5967 10.8907 12.5965C10.8907 12.5963 10.8907 12.5961 10.8907 12.596V11.4431C10.8907 11.0336 10.9953 10.6293 11.1929 10.2741C11.3157 10.0536 11.2365 9.77565 11.016 9.6529C10.7956 9.53016 10.5175 9.60955 10.3947 9.82989C10.1216 10.3207 9.97725 10.8784 9.97725 11.4431V12.1398H6.3705C6.17407 12.1398 5.99959 12.2654 5.93732 12.4516C5.54767 13.617 4.69487 14.1556 4.02994 14.4033C4.13484 13.7201 4.17802 13.1068 4.15839 12.5794C4.14911 12.3339 3.94751 12.1398 3.70184 12.1398H3.32111C1.99356 12.1398 0.913462 11.0597 0.913462 9.73212V5.83313C0.913462 4.50558 1.99356 3.42549 3.32111 3.42549H12.0789C13.4065 3.42549 14.4866 4.50558 14.4866 5.83313V8.12214H13.8389C13.5867 8.12214 13.3822 8.3266 13.3822 8.57887C13.3822 8.83114 13.5867 9.0356 13.8389 9.0356H20.0635C21.3911 9.0356 22.4712 10.1157 22.4712 11.4433V15.3421Z" fill="#001942"/>
<path d="M9.48186 6.27933C9.73414 6.27933 9.93859 6.07487 9.93859 5.8226C9.93859 5.57033 9.73414 5.36587 9.48186 5.36587H7.73951V4.68238C7.73951 4.43011 7.53505 4.22565 7.28278 4.22565C7.03068 4.22565 6.82605 4.43011 6.82605 4.68238V5.36587H5.08387C4.83159 5.36587 4.62714 5.57033 4.62714 5.8226C4.62714 6.07487 4.83159 6.27933 5.08387 6.27933H8.11114C8.02461 6.65952 7.81105 7.27343 7.28474 7.96477C7.0314 7.63204 6.85316 7.32178 6.72845 7.05452C6.62177 6.82598 6.34987 6.72714 6.12132 6.83401C5.89278 6.9407 5.79394 7.21242 5.90063 7.44096C6.06584 7.79475 6.30955 8.21241 6.66708 8.65665C6.22801 9.08162 5.66102 9.51552 4.92811 9.92711C4.70813 10.0506 4.62999 10.3289 4.75345 10.5489C4.83713 10.6982 4.99234 10.7821 5.1522 10.7821C5.22784 10.7821 5.30456 10.7633 5.37521 10.7235C6.17003 10.2773 6.79429 9.80222 7.28492 9.33033C7.77144 9.79919 8.39392 10.2766 9.19034 10.7235C9.26117 10.7633 9.33789 10.7821 9.41353 10.7821C9.57321 10.7821 9.72843 10.6982 9.81228 10.5489C9.93574 10.3289 9.85742 10.0506 9.63762 9.92711C8.90399 9.51534 8.33879 9.0802 7.9024 8.65718C8.69293 7.67361 8.95466 6.7762 9.04083 6.27933H9.48186Z" fill="#001942"/>
<path d="M11.9999 8.43311H11.9989C11.7468 8.43311 11.5427 8.63756 11.5427 8.88984C11.5427 9.14211 11.7478 9.34657 11.9999 9.34657C12.2522 9.34657 12.4567 9.14211 12.4567 8.88984C12.4567 8.63756 12.2522 8.43311 11.9999 8.43311Z" fill="#001942"/>
</g>
<defs>
<clipPath id="clip0_762_1951">
<rect width="23.3846" height="23.3846" fill="white"/>
</clipPath>
</defs>
</svg>
