<svg width="16" height="16" viewBox="0 0 16 16" fill="none" xmlns="http://www.w3.org/2000/svg">
<g clip-path="url(#clip0_252_360)">
<path d="M12.4601 0H3.54029C1.58502 0 0 1.58466 0 3.54029V12.4597C0 14.4153 1.58466 16.0004 3.54029 16.0004H12.4601C14.4153 16.0004 16.0004 14.4153 16.0004 12.4597V3.54029C16 1.58502 14.4153 0 12.4601 0ZM10.3021 8.38232C9.6372 9.00959 8.6546 9.29074 7.50337 9.29074C7.24707 9.29074 7.01455 9.27867 6.84026 9.25204V11.7945C6.84026 12.1001 6.59247 12.3479 6.28683 12.3479H5.45119C5.14555 12.3479 4.89776 12.1005 4.89776 11.7945V4.3099C4.89776 4.02982 5.10685 3.79375 5.38481 3.76074C5.93575 3.69471 6.63578 3.65069 7.53639 3.65069C8.73837 3.65069 9.59744 3.88108 10.1725 4.34114C10.722 4.77671 11.0941 5.49237 11.0941 6.33653C11.0948 7.18033 10.814 7.89705 10.3021 8.38232Z" fill="#74839C"/>
<path d="M7.64402 5.12177C7.47825 5.12177 7.33625 5.12851 7.21626 5.1388C7.00292 5.15762 6.84033 5.33547 6.84033 5.54953V7.37771C6.84033 7.59851 7.01428 7.78027 7.23508 7.7895C7.31211 7.79269 7.3966 7.79411 7.49067 7.79411C8.52617 7.79411 9.16586 7.26944 9.16586 6.3873C9.16621 5.59461 8.61598 5.12177 7.64402 5.12177Z" fill="#74839C"/>
</g>
<defs>
<clipPath id="clip0_252_360">
<rect width="16" height="16" fill="white"/>
</clipPath>
</defs>
</svg>
