<svg width="16" height="16" viewBox="0 0 16 16" fill="none" xmlns="http://www.w3.org/2000/svg">
<g clip-path="url(#clip0_252_422)">
<path d="M1.43506 10.5474L3.88178 15.2371L5.99101 14.3359L2.52843 7.98752L1.43506 10.5474Z" fill="#74839C"/>
<path d="M0.141029 13.5762C-0.34744 14.7193 0.492788 15.9995 1.74093 15.9995C1.97716 15.9995 2.20715 15.9523 2.42432 15.8595L3.01709 15.6064L0.958789 11.6617L0.141029 13.5762Z" fill="#74839C"/>
<path d="M3.64509 5.37299L2.99731 6.88976L6.85707 13.9659L10.6268 12.3557C8.02521 11.4299 4.56965 7.97997 3.64509 5.37299Z" fill="#74839C"/>
<path d="M10.1688 8.58152C9.98597 8.39841 9.98597 8.10155 10.1688 7.91844L11.3149 6.77258C10.7126 6.04619 9.98981 5.31733 9.22789 4.68552L8.08203 5.8317C7.90004 6.01372 7.60272 6.0155 7.41895 5.8317C7.23615 5.64859 7.23615 5.35173 7.41895 5.16862L8.48076 4.10712C7.45538 3.36955 5.56829 2.27037 4.66913 3.16875C3.63107 4.20712 5.14097 6.8032 7.16897 8.83151C8.74355 10.4061 10.6606 11.6682 11.9252 11.6682C12.2893 11.6682 12.5996 11.5635 12.8317 11.3313C13.7294 10.4329 12.6328 8.54768 11.8933 7.51972L10.8319 8.58152C10.6499 8.76351 10.3526 8.76529 10.1688 8.58152Z" fill="#74839C"/>
<path d="M9.64852 4.26493C10.4916 3.42186 10.6235 2.09007 9.96225 1.09795C9.51072 0.420807 8.67671 0.0983276 7.88676 0.295815C7.63584 0.358623 7.48304 0.612982 7.54585 0.864216C7.60866 1.11514 7.86301 1.26794 8.11425 1.20513C8.52047 1.10358 8.94982 1.2695 9.1823 1.61823C9.59634 2.23944 9.51385 3.07407 8.98575 3.60216L8.48079 4.10713C8.72858 4.28493 8.97857 4.47836 9.22793 4.68553L9.64852 4.26493Z" fill="#74839C"/>
<path d="M14.3822 6.81821C14.731 7.0507 14.8969 7.48005 14.7953 7.88627C14.7325 8.1375 14.8853 8.39186 15.1363 8.45467C15.3875 8.51748 15.6419 8.36499 15.7047 8.11376C15.9021 7.32381 15.5797 6.4898 14.9025 6.03826C13.9104 5.37706 12.5786 5.50892 11.7355 6.35199L11.3149 6.77259C11.5221 7.02195 11.7155 7.27193 11.8933 7.51973L12.3983 7.01476C12.9264 6.48667 13.761 6.40387 14.3822 6.81821Z" fill="#74839C"/>
<path d="M12.3316 4.33168L14.7065 1.95683C14.8895 1.77378 14.8895 1.47702 14.7065 1.29397C14.5235 1.11091 14.2267 1.11091 14.0436 1.29397L11.6688 3.66881C11.4857 3.85186 11.4857 4.14862 11.6688 4.33168C11.8518 4.51473 12.1486 4.51476 12.3316 4.33168Z" fill="#74839C"/>
<path d="M2.50095 1.71916H2.78218V2.00039C2.78218 2.25925 2.99204 2.46911 3.2509 2.46911C3.50976 2.46911 3.71962 2.25925 3.71962 2.00039V1.71916H4.00085C4.25971 1.71916 4.46957 1.5093 4.46957 1.25044C4.46957 0.99158 4.25971 0.781718 4.00085 0.781718H3.71962V0.469239C3.71962 0.21038 3.50976 0.000518799 3.2509 0.000518799C2.99204 0.000518799 2.78218 0.21038 2.78218 0.469239V0.781718H2.50095C2.24209 0.781718 2.03223 0.99158 2.03223 1.25044C2.03223 1.5093 2.24209 1.71916 2.50095 1.71916Z" fill="#74839C"/>
<path d="M15.5314 11.781H15.2189V11.4998C15.2189 11.2409 15.009 11.0311 14.7502 11.0311C14.4913 11.0311 14.2814 11.2409 14.2814 11.4998V11.781H14.0002C13.7414 11.781 13.5315 11.9909 13.5315 12.2497C13.5315 12.5086 13.7414 12.7185 14.0002 12.7185H14.2814V12.9997C14.2814 13.2585 14.4913 13.4684 14.7502 13.4684C15.009 13.4684 15.2189 13.2585 15.2189 12.9997V12.7185H15.5314C15.7902 12.7185 16.0001 12.5086 16.0001 12.2497C16.0001 11.9909 15.7903 11.781 15.5314 11.781Z" fill="#74839C"/>
<path d="M12.2509 0.937958C12.5097 0.937958 12.7196 0.728097 12.7196 0.469239C12.7196 0.21038 12.5097 0.000518799 12.2509 0.000518799C11.989 0.000518799 11.782 0.212911 11.782 0.469239C11.782 0.728097 11.992 0.937958 12.2509 0.937958Z" fill="#74839C"/>
<path d="M14.5317 4.25024C14.5317 4.5091 14.7418 4.71896 15.0006 4.71896C15.2595 4.71896 15.4693 4.5091 15.4693 4.25024C15.4693 3.99354 15.2617 3.78152 15.0003 3.78152C14.7414 3.78152 14.5317 3.99139 14.5317 4.25024Z" fill="#74839C"/>
</g>
<defs>
<clipPath id="clip0_252_422">
<rect width="16" height="16" fill="white"/>
</clipPath>
</defs>
</svg>
