<svg width="16" height="10" viewBox="0 0 16 10" fill="none" xmlns="http://www.w3.org/2000/svg">
<path d="M15.0843 3.01357H14.1413C13.6283 1.58588 12.2609 0.562042 10.6588 0.562042C9.05669 0.562042 7.68927 1.58588 7.17618 3.01357H0.915712C0.410014 3.01357 0 3.42359 0 3.92929V7.25056C0 7.75633 0.410014 8.16642 0.915712 8.16642H15.0843C15.5899 8.16642 16 7.75633 16 7.25056V3.92929C16 3.42359 15.5899 3.01357 15.0843 3.01357ZM3.2625 6.8133H1.87901C1.6226 6.8133 1.4147 6.60536 1.4147 6.34899C1.4147 6.0925 1.6226 5.88464 1.87901 5.88464H3.26247C3.51892 5.88464 3.72678 6.0925 3.72678 6.34899C3.72681 6.6054 3.51892 6.8133 3.2625 6.8133ZM3.2625 5.28665H1.87901C1.6226 5.28665 1.4147 5.07875 1.4147 4.82238C1.4147 4.56592 1.6226 4.35807 1.87901 4.35807H3.26247C3.51892 4.35807 3.72678 4.56592 3.72678 4.82238C3.72681 5.07883 3.51892 5.28665 3.2625 5.28665ZM10.6588 6.72767C9.29889 6.72767 8.19258 5.62133 8.19258 4.26142C8.19258 2.90155 9.29889 1.79517 10.6588 1.79517C12.0187 1.79517 13.1251 2.90155 13.1251 4.26142C13.1251 5.62133 12.0187 6.72767 10.6588 6.72767Z" fill="#74839C"/>
<path d="M10.6654 2.72838C9.81419 2.72838 9.12402 3.41854 9.12402 4.26979C9.12402 5.12107 9.81419 5.81119 10.6654 5.81119C11.5167 5.81119 12.2068 5.12107 12.2068 4.26979C12.2068 3.41854 11.5166 2.72838 10.6654 2.72838ZM10.6654 3.83357C10.3143 3.83357 10.0296 3.65889 10.0296 3.4434C10.0296 3.22791 10.3143 3.05323 10.6654 3.05323C11.0166 3.05323 11.3013 3.22791 11.3013 3.4434C11.3013 3.65889 11.0165 3.83357 10.6654 3.83357Z" fill="#74839C"/>
<path d="M1.0979 9.03916C1.0979 9.25943 1.27647 9.438 1.49674 9.438H3.64458C3.86484 9.438 4.04341 9.25943 4.04341 9.03916V8.65042H1.0979V9.03916Z" fill="#74839C"/>
<path d="M11.9565 9.03916C11.9565 9.25943 12.1352 9.438 12.3555 9.438H14.5033C14.7235 9.438 14.9021 9.25943 14.9021 9.03916V8.65042H11.9565V9.03916Z" fill="#74839C"/>
</svg>
