<svg width="24" height="23" viewBox="0 0 24 23" fill="none" xmlns="http://www.w3.org/2000/svg">
<path d="M9.48438 5.03125H13.7969C14.1922 5.03125 14.5156 4.70781 14.5156 4.3125C14.5156 3.91719 14.1922 3.59375 13.7969 3.59375H9.48438C9.08906 3.59375 8.76562 3.91719 8.76562 4.3125C8.76562 4.70781 9.08906 5.03125 9.48438 5.03125Z" fill="#011839"/>
<path d="M6.60938 5.03125H6.96875C7.36406 5.03125 7.6875 4.70781 7.6875 4.3125C7.6875 3.91719 7.36406 3.59375 6.96875 3.59375H6.60938C6.21406 3.59375 5.89062 3.91719 5.89062 4.3125C5.89062 4.70781 6.21406 5.03125 6.60938 5.03125Z" fill="#011839"/>
<path d="M6.60938 7.90625H13.7969C14.1922 7.90625 14.5156 7.58281 14.5156 7.1875C14.5156 6.79219 14.1922 6.46875 13.7969 6.46875H6.60938C6.21406 6.46875 5.89062 6.79219 5.89062 7.1875C5.89062 7.58281 6.21406 7.90625 6.60938 7.90625Z" fill="#011839"/>
<path d="M13.7969 10.0625H9.48438C9.08906 10.0625 8.76562 10.3859 8.76562 10.7812C8.76562 11.1766 9.08906 11.5 9.48438 11.5H13.7969C14.1922 11.5 14.5156 11.1766 14.5156 10.7812C14.5156 10.3859 14.1922 10.0625 13.7969 10.0625Z" fill="#011839"/>
<path d="M6.60938 11.5H6.96875C7.36406 11.5 7.6875 11.1766 7.6875 10.7812C7.6875 10.3859 7.36406 10.0625 6.96875 10.0625H6.60938C6.21406 10.0625 5.89062 10.3859 5.89062 10.7812C5.89062 11.1766 6.21406 11.5 6.60938 11.5Z" fill="#011839"/>
<path d="M6.60938 14.375H13.7969C14.1922 14.375 14.5156 14.0516 14.5156 13.6562C14.5156 13.2609 14.1922 12.9375 13.7969 12.9375H6.60938C6.21406 12.9375 5.89062 13.2609 5.89062 13.6562C5.89062 14.0516 6.21406 14.375 6.60938 14.375Z" fill="#011839"/>
<path d="M16.3125 0.71875H4.09375C3.69844 0.71875 3.375 1.04219 3.375 1.4375V16.5312H1.9375C1.54219 16.5312 1.21875 16.8547 1.21875 17.25V19.7656C1.21875 21.1528 2.34719 22.2812 3.73438 22.2812H14.5156C15.9028 22.2812 17.0312 21.1528 17.0312 19.7656V1.4375C17.0312 1.04219 16.7078 0.71875 16.3125 0.71875ZM3.73438 20.8438C3.13781 20.8438 2.65625 20.3622 2.65625 19.7656V17.9688H11.6406C11.8419 17.9688 12 18.1269 12 18.3281V19.7656C12 20.1537 12.0863 20.5131 12.2444 20.8438H3.73438ZM15.5938 19.7656C15.5938 20.3622 15.1122 20.8438 14.5156 20.8438C13.9191 20.8438 13.4375 20.3622 13.4375 19.7656V18.3281C13.4375 17.3363 12.6325 16.5312 11.6406 16.5312H4.8125V2.15625H15.5938V19.7656Z" fill="#011839"/>
<path d="M19.1875 18.6875C19.1875 18.8456 19.2378 18.9966 19.3313 19.1188L20.2656 20.3622V21.5625C20.2656 21.9578 20.5891 22.2812 20.9844 22.2812C21.3797 22.2812 21.7031 21.9578 21.7031 21.5625V20.3622L22.6375 19.1188C22.7309 18.9966 22.7812 18.8456 22.7812 18.6875V5.03125H19.1875V18.6875Z" fill="#005FEA"/>
<path d="M21.3438 0.71875H20.625C19.8344 0.71875 19.1875 1.36562 19.1875 2.15625V3.59375H22.7812V2.15625C22.7812 1.36562 22.1344 0.71875 21.3438 0.71875Z" fill="#005FEA"/>
</svg>
