<svg width="16" height="16" viewBox="0 0 16 16" fill="none" xmlns="http://www.w3.org/2000/svg">
<path d="M8 14.275C7.95027 14.275 7.90258 14.2552 7.86742 14.2201C7.83225 14.1849 7.8125 14.1372 7.8125 14.0875V11.7969C7.8125 11.7471 7.83225 11.6995 7.86742 11.6643C7.90258 11.6291 7.95027 11.6094 8 11.6094C8.04973 11.6094 8.09742 11.6291 8.13258 11.6643C8.16775 11.6995 8.1875 11.7471 8.1875 11.7969V14.0875C8.1875 14.1372 8.16775 14.1849 8.13258 14.2201C8.09742 14.2552 8.04973 14.275 8 14.275Z" fill="#74839C"/>
<path d="M14.0754 0.5H1.92477C1.71143 0.504178 1.50823 0.591864 1.35883 0.744222C1.20942 0.89658 1.12573 1.10146 1.12573 1.31484C1.12573 1.52823 1.20942 1.73311 1.35883 1.88547C1.50823 2.03782 1.71143 2.12551 1.92477 2.12969H14.0754C14.2887 2.12551 14.4919 2.03782 14.6413 1.88547C14.7908 1.73311 14.8744 1.52823 14.8744 1.31484C14.8744 1.10146 14.7908 0.89658 14.6413 0.744222C14.4919 0.591864 14.2887 0.504178 14.0754 0.5Z" fill="#74839C"/>
<path d="M3.13853 11.6406H12.8616C13.2079 11.6403 13.5399 11.5026 13.7848 11.2578C14.0297 11.0129 14.1675 10.681 14.1679 10.3347V2.44218H1.83228V10.3347C1.83269 10.681 1.97045 11.0129 2.21534 11.2578C2.46023 11.5026 2.79224 11.6403 3.13853 11.6406Z" fill="#74839C"/>
<path d="M8.0002 15.6562C8.43339 15.6562 8.78457 15.3051 8.78457 14.8719C8.78457 14.4387 8.43339 14.0875 8.0002 14.0875C7.567 14.0875 7.21582 14.4387 7.21582 14.8719C7.21582 15.3051 7.567 15.6562 8.0002 15.6562Z" fill="#74839C"/>
</svg>
