<svg width="14" height="14" viewBox="0 0 14 14" fill="none" xmlns="http://www.w3.org/2000/svg">
<path d="M13.2929 7.31609C13.6834 6.92556 13.6834 6.2924 13.2929 5.90187L9.18953 1.79851C8.55957 1.16855 7.48243 1.61472 7.48243 2.50562V4.36119C5.52981 4.46356 3.70858 5.27275 2.31561 6.66572C0.822363 8.15893 0 10.1443 0 12.2561C0 12.6943 0.584069 12.844 0.794856 12.4598C2.035 10.1993 4.40896 8.795 6.99021 8.795C7.15389 8.795 7.31845 8.8008 7.48243 8.81229V10.7123C7.48243 11.6032 8.55957 12.0494 9.18953 11.4194L13.2929 7.31609ZM6.99021 7.9479C4.67849 7.9479 2.51511 8.95393 1.03094 10.6518C1.75921 7.52976 4.56529 5.19717 7.90595 5.19717H8.32948V2.13639L12.802 6.60895L8.32948 11.0815V8.05358L7.95802 8.00756C7.6384 7.96799 7.31279 7.9479 6.99021 7.9479Z" fill="#AAB3C1"/>
</svg>
