<svg width="26" height="25" viewBox="0 0 26 25" fill="none" xmlns="http://www.w3.org/2000/svg">
<path d="M5.91407 15.2031C5.57814 15.4765 5.53126 15.9687 5.81251 16.3046C5.8672 16.375 5.92189 16.4375 5.98439 16.5C6.14064 16.6718 6.35157 16.7656 6.57032 16.7656C6.75782 16.7656 6.93751 16.7031 7.08595 16.5703C7.40626 16.2812 7.43751 15.789 7.15626 15.4687L7.02345 15.3125C6.75001 14.9843 6.25782 14.9296 5.92189 15.2109L5.91407 15.2031Z" fill="#011839"/>
<path d="M8.60157 16.6796C8.23438 16.4531 7.75001 16.5781 7.53126 16.9453C7.30469 17.3124 7.42969 17.7968 7.79688 18.0156C9.00782 18.7499 10.4063 19.1328 11.8281 19.1328C12.2578 19.1328 12.6094 18.7812 12.6094 18.3515C12.6094 17.9218 12.2578 17.5703 11.8281 17.5703C10.6875 17.5703 9.57813 17.2578 8.60157 16.6718V16.6796Z" fill="#011839"/>
<path d="M11.8281 0.78125C6.01562 0.78125 1.28125 5.51562 1.28125 11.3281C1.28125 17.1406 6.01562 21.875 11.8281 21.875C12.3203 21.875 12.8047 21.8438 13.2656 21.7734C13.6953 21.7109 13.9844 21.3125 13.9219 20.8906C13.8594 20.4609 13.4609 20.1641 13.0391 20.2344C12.6484 20.2891 12.2422 20.3203 11.8203 20.3203C8.5 20.3203 5.60156 18.5078 4.04688 15.8203C5.08594 14.0234 6.72656 12.625 8.66406 11.8906C9.45312 12.75 10.5703 13.2891 11.8281 13.2891C13.0859 13.2891 14.2031 12.75 14.9922 11.8906C15.9219 12.2422 16.7891 12.7344 17.5625 13.3828C17.7109 13.5078 17.8906 13.5625 18.0625 13.5625C18.2891 13.5625 18.5078 13.4688 18.6641 13.2812C18.9375 12.9531 18.8984 12.4609 18.5703 12.1797C17.7422 11.4844 16.8203 10.9297 15.8359 10.5312C16.0234 10.0469 16.125 9.53125 16.125 8.98438C16.125 6.61719 14.1953 4.6875 11.8281 4.6875C9.46094 4.6875 7.53125 6.61719 7.53125 8.98438C7.53125 9.53125 7.64062 10.0547 7.82812 10.5312C6.01562 11.2812 4.44531 12.5312 3.29688 14.1172C3.00781 13.2344 2.84375 12.2969 2.84375 11.3281C2.84375 6.375 6.875 2.34375 11.8281 2.34375C16.7812 2.34375 20.8125 6.375 20.8125 11.3281C20.8125 11.7422 20.7812 12.1562 20.7266 12.5469C20.6641 12.9766 20.9609 13.3672 21.3828 13.4297C21.8047 13.5 22.2031 13.1953 22.2656 12.7734C22.3359 12.3125 22.3672 11.8203 22.3672 11.3359C22.3672 5.52344 17.6328 0.789062 11.8203 0.789062L11.8281 0.78125ZM11.8281 6.25C13.3359 6.25 14.5625 7.47656 14.5625 8.98438C14.5625 10.4922 13.3359 11.7188 11.8281 11.7188C10.3203 11.7188 9.09375 10.4922 9.09375 8.98438C9.09375 7.47656 10.3203 6.25 11.8281 6.25Z" fill="#011839"/>
<path d="M20.0312 14.8438C17.4453 14.8438 15.3438 16.9453 15.3438 19.5312C15.3438 22.1172 17.4453 24.2188 20.0312 24.2188C22.6172 24.2188 24.7188 22.1172 24.7188 19.5312C24.7188 16.9453 22.6172 14.8438 20.0312 14.8438ZM21.9844 20.3125H20.8125V21.4844C20.8125 21.9141 20.4609 22.2656 20.0312 22.2656C19.6016 22.2656 19.25 21.9141 19.25 21.4844V20.3125H18.0781C17.6484 20.3125 17.2969 19.9609 17.2969 19.5312C17.2969 19.1016 17.6484 18.75 18.0781 18.75H19.25V17.5781C19.25 17.1484 19.6016 16.7969 20.0312 16.7969C20.4609 16.7969 20.8125 17.1484 20.8125 17.5781V18.75H21.9844C22.4141 18.75 22.7656 19.1016 22.7656 19.5312C22.7656 19.9609 22.4141 20.3125 21.9844 20.3125Z" fill="#005FEA"/>
</svg>
