<svg width="21" height="13" viewBox="0 0 21 13" fill="none" xmlns="http://www.w3.org/2000/svg">
<path d="M18.4737 0H2.05263C0.923684 0 0 0.923684 0 2.05263V10.9474C0 12.0763 0.923684 13 2.05263 13H18.4737C19.6026 13 20.5263 12.0763 20.5263 10.9474V2.05263C20.5263 0.923684 19.6026 0 18.4737 0ZM19.5 2.05263V4C18 3.5 17 2.5 16.5 1H18.4737C18.85 1 19.5 1.67632 19.5 2.05263ZM15.7984 12H4.72789C4.44053 10.2826 2.71737 8.55947 1 8.27211V4.72789C2.71737 4.44053 4.44053 2.71737 4.72789 1H15.7984C16.0858 2.71737 17.7826 4.44053 19.5 4.72789V8.27211C17.7826 8.55947 16.0858 10.2826 15.7984 12ZM2.05263 1H4C3.5 2.5 2.5 3.5 1 4V2.05263C1 1.67632 1.67632 1 2.05263 1ZM1 10.9474V9C2.5 9.5 3.5 10.5 4 12H2.05263C1.67632 12 1 11.3237 1 10.9474ZM18.4737 12H16.5C17 10.5 18 9.5 19.5 9V11C19.5 11.3763 18.85 12 18.4737 12Z" fill="#001942"/>
<path d="M10.2632 3.07892C8.37473 3.07892 6.8421 4.61155 6.8421 6.49997C6.8421 8.38839 8.37473 9.92102 10.2632 9.92102C12.1516 9.92102 13.6842 8.38839 13.6842 6.49997C13.6842 4.61155 12.1516 3.07892 10.2632 3.07892ZM10.2632 8.87187C9.13421 8.87187 8 7.62895 8 6.5C8 5.37105 9.13421 4.26462 10.2632 4.26462C11.3921 4.26462 12.5 5.37105 12.5 6.5C12.5 7.62895 11.3921 8.87187 10.2632 8.87187Z" fill="#005FEA"/>
<path d="M17.1052 5.8158H15.7368C15.3605 5.8158 15.0526 6.12369 15.0526 6.50001C15.0526 6.87632 15.3605 7.18422 15.7368 7.18422H17.1052C17.4816 7.18422 17.7895 6.87632 17.7895 6.50001C17.7895 6.12369 17.4816 5.8158 17.1052 5.8158Z" fill="#001942"/>
<path d="M4.78945 5.8158H3.42103C3.04471 5.8158 2.73682 6.12369 2.73682 6.50001C2.73682 6.87632 3.04471 7.18422 3.42103 7.18422H4.78945C5.16576 7.18422 5.47366 6.87632 5.47366 6.50001C5.47366 6.12369 5.16576 5.8158 4.78945 5.8158Z" fill="#001942"/>
</svg>
