<svg width="24" height="24" viewBox="0 0 24 24" fill="none" xmlns="http://www.w3.org/2000/svg">
<path d="M15.4 7C15.4 8.87777 13.8778 10.4 12 10.4V11.6C14.5405 11.6 16.6 9.54051 16.6 7H15.4ZM12 10.4C10.1222 10.4 8.6 8.87777 8.6 7H7.4C7.4 9.54051 9.45949 11.6 12 11.6V10.4ZM8.6 7C8.6 5.12223 10.1222 3.6 12 3.6V2.4C9.45949 2.4 7.4 4.45949 7.4 7H8.6ZM12 3.6C13.8778 3.6 15.4 5.12223 15.4 7H16.6C16.6 4.45949 14.5405 2.4 12 2.4V3.6ZM18.4 17.5C18.4 18.1168 17.8844 18.8367 16.6814 19.4382C15.5143 20.0218 13.86 20.4 12 20.4V21.6C14.0059 21.6 15.8517 21.1947 17.2181 20.5115C18.5486 19.8463 19.6 18.8162 19.6 17.5H18.4ZM12 20.4C10.14 20.4 8.48566 20.0218 7.31858 19.4382C6.11561 18.8367 5.6 18.1168 5.6 17.5H4.4C4.4 18.8162 5.45139 19.8463 6.78192 20.5115C8.14835 21.1947 9.99405 21.6 12 21.6V20.4ZM5.6 17.5C5.6 16.8832 6.11561 16.1633 7.31858 15.5618C8.48566 14.9782 10.14 14.6 12 14.6V13.4C9.99405 13.4 8.14835 13.8053 6.78192 14.4885C5.45139 15.1537 4.4 16.1838 4.4 17.5H5.6ZM12 14.6C13.86 14.6 15.5143 14.9782 16.6814 15.5618C17.8844 16.1633 18.4 16.8832 18.4 17.5H19.6C19.6 16.1838 18.5486 15.1537 17.2181 14.4885C15.8517 13.8053 14.0059 13.4 12 13.4V14.6Z" fill="#28303F"/>
</svg>
